<svg aria-hidden="true" style="position: absolute; width: 0; height: 0; overflow: hidden;" version="1.1" xmlns="http://www.w3.org/2000/svg" xmlns:xlink="http://www.w3.org/1999/xlink">
<defs>
<symbol id="icon-apple" viewBox="0 0 32 32">
<path fill="#999" style="fill: var(--color1, #999)" d="M9.437 31.4c-0.631-0.421-1.191-0.937-1.659-1.533-0.511-0.617-0.984-1.267-1.419-1.939-1.021-1.493-1.82-3.127-2.373-4.848-0.667-2.003-0.991-3.92-0.991-5.796 0-2.093 0.453-3.92 1.336-5.453 0.653-1.2 1.627-2.204 2.8-2.909 1.133-0.707 2.453-1.093 3.787-1.12 0.467 0 0.973 0.067 1.507 0.2 0.387 0.107 0.853 0.28 1.427 0.493 0.733 0.28 1.133 0.453 1.267 0.493 0.427 0.16 0.787 0.227 1.067 0.227 0.213 0 0.52-0.067 0.86-0.173 0.193-0.067 0.56-0.187 1.080-0.413 0.515-0.187 0.923-0.347 1.247-0.467 0.493-0.147 0.971-0.28 1.4-0.347 0.52-0.080 1.036-0.107 1.531-0.067 0.947 0.067 1.813 0.267 2.587 0.56 1.36 0.547 2.457 1.4 3.276 2.613-0.347 0.213-0.667 0.461-0.967 0.733-0.649 0.573-1.2 1.253-1.64 2.007-0.573 1.027-0.867 2.187-0.859 3.36 0.020 1.444 0.387 2.713 1.12 3.813 0.516 0.8 1.205 1.485 2.045 2.048 0.413 0.28 0.776 0.473 1.12 0.6-0.16 0.5-0.336 0.987-0.54 1.467-0.463 1.076-1.013 2.107-1.667 3.080-0.576 0.84-1.029 1.467-1.373 1.88-0.536 0.64-1.053 1.12-1.573 1.463-0.573 0.38-1.247 0.581-1.936 0.581-0.467 0.020-0.933-0.040-1.379-0.169-0.387-0.127-0.768-0.269-1.141-0.431-0.391-0.179-0.795-0.331-1.207-0.453-0.507-0.133-1.027-0.197-1.552-0.196-0.533 0-1.053 0.067-1.547 0.193-0.413 0.117-0.813 0.261-1.209 0.433-0.56 0.233-0.927 0.387-1.14 0.453-0.432 0.128-0.875 0.205-1.32 0.233-0.693 0-1.339-0.2-1.964-0.617zM18.576 6.787c-0.907 0.453-1.768 0.645-2.631 0.581-0.133-0.861 0-1.747 0.36-2.716 0.32-0.827 0.747-1.573 1.333-2.24 0.613-0.693 1.347-1.267 2.173-1.68 0.88-0.453 1.72-0.693 2.52-0.733 0.107 0.907 0 1.8-0.333 2.76-0.304 0.853-0.757 1.64-1.333 2.347-0.58 0.693-1.3 1.267-2.089 1.681z"></path>
</symbol>
<symbol id="icon-dell" viewBox="0 0 32 32">
<path fill="#007db8" style="fill: var(--color2, #007db8)" d="M23.951 19.467v-7.035h1.629v5.605h2.853v1.427zM10.905 15.083l3.973-3.056c0.375 0.304 0.747 0.611 1.121 0.916l-3.769 2.853 0.815 0.713 3.769-2.955c0.375 0.304 0.747 0.611 1.121 0.917-0.431 0.366-1.658 1.334-2.89 2.295l-0.879 0.66 0.813 0.715 3.773-3.060-0.001-2.648h1.631v5.605h2.955v1.427h-4.483v-2.649c-1.327 1.017-2.649 2.039-3.975 3.056l-3.975-3.056c-0.192 0.972-0.871 1.813-1.749 2.259-0.38 0.196-0.796 0.32-1.22 0.368-0.244 0.029-0.489 0.023-0.735 0.023h-2.513v-7.032h2.899c0.792 0.008 1.518 0.287 2.091 0.748l-0.007-0.005c0.605 0.48 1.037 1.163 1.236 1.907zM6.219 13.86v4.28l1.271-0.001c0.56-0.019 1.054-0.286 1.378-0.694l0.003-0.004c0.315-0.393 0.506-0.897 0.506-1.446 0-0.392-0.097-0.762-0.269-1.085l0.006 0.013c-0.266-0.507-0.731-0.88-1.288-1.018l-0.014-0.003c-0.221-0.053-0.451-0.040-0.676-0.043zM15.76 0h0.449c2.641 0.036 5.117 0.709 7.292 1.872l-0.085-0.042c2.209 1.178 4.049 2.775 5.47 4.699l0.031 0.044c1.883 2.541 3.032 5.725 3.083 9.175l0 0.012v0.48c-0.054 4.152-1.686 7.913-4.322 10.719l0.008-0.008c-2.873 3.063-6.927 4.989-11.432 5.049l-0.011 0h-0.481c-1.995-0.031-3.89-0.423-5.635-1.112l0.108 0.038c-2.231-0.882-4.13-2.166-5.695-3.777l-0.004-0.004c-1.67-1.716-2.962-3.808-3.735-6.137l-0.033-0.113c-0.462-1.385-0.741-2.981-0.768-4.639l-0-0.013v-0.481c0.056-3.184 1.040-6.128 2.692-8.585l-0.036 0.057c1.582-2.364 3.7-4.252 6.188-5.52l0.092-0.043c1.988-1.016 4.33-1.628 6.81-1.669l0.014-0zM15.556 1.64c-3.268 0.096-6.244 1.275-8.6 3.187l0.026-0.021c-1.959 1.586-3.477 3.642-4.392 5.999l-0.033 0.098c-0.586 1.513-0.926 3.264-0.926 5.094 0 2.072 0.435 4.043 1.22 5.825l-0.036-0.093c1.061 2.4 2.675 4.389 4.688 5.867l0.040 0.028c1.791 1.319 3.954 2.238 6.304 2.585l0.078 0.009c1.941 0.279 3.94 0.165 5.835-0.347 2.688-0.741 4.98-2.165 6.759-4.074l0.008-0.009c1.772-1.898 3.037-4.291 3.566-6.949l0.015-0.091c0.167-0.827 0.262-1.778 0.262-2.751 0-1.24-0.155-2.443-0.447-3.592l0.022 0.101c-1.232-4.82-4.782-8.602-9.363-10.139l-0.101-0.029c-1.33-0.449-2.862-0.708-4.454-0.708-0.165 0-0.33 0.003-0.493 0.008l0.024-0.001z"></path>
</symbol>
<symbol id="icon-fujifilm" viewBox="0 0 32 32">
<path fill="#ed1a3a" style="fill: var(--color3, #ed1a3a)" d="M0.645 13.337c-0.644 0-0.645 0.317-0.645 0.711v4.439h1.048c0.22 0.004 0.32-0.076 0.324-0.276v-2.075h1.925c0.045 0 0.073-0.024 0.073-0.069v-0.52h-1.997v-1.307c0-0.231 0.115-0.34 0.344-0.34h1.696c0.049 0 0.065-0.032 0.065-0.067v-0.496zM11.308 13.337c-0.148 0-0.263 0.069-0.263 0.28v3.539c0 0.503-0.191 0.843-0.764 0.924-0.387 0.055-0.904 0.040-1.129 0.032v0.432c0 0.040 0.019 0.069 0.065 0.080 0.033 0.008 0.277 0.039 0.827 0.039 0.963 0 1.405-0.208 1.66-0.389 0.487-0.351 0.66-0.767 0.66-1.589v-3.347zM4.468 13.337c-0.197 0-0.259 0.093-0.259 0.265v3.544c0 0.717 0.347 1.155 1.085 1.377 0.617 0.187 1.613 0.183 2.268 0.004 0.493-0.133 1.049-0.497 1.049-1.383v-3.808h-1.027c-0.229 0-0.292 0.097-0.292 0.261v3.664c0 0.392-0.084 0.591-0.305 0.715-0.323 0.18-0.86 0.177-1.177-0.005-0.236-0.137-0.284-0.373-0.284-0.711v-3.924zM16.879 13.337c-0.644 0-0.644 0.319-0.644 0.711v1.327c0 0.027-0.013 0.039-0.024 0.051l-0.903 0.711h0.927v2.351h1.048c0.219 0.004 0.32-0.076 0.323-0.276v-2.075h1.925c0.045 0 0.073-0.024 0.073-0.069v-0.52h-1.999v-1.307c0-0.231 0.116-0.34 0.344-0.34h1.699c0.048 0 0.067-0.032 0.067-0.067v-0.496zM21.813 13.337h-1.024c-0.233 0-0.296 0.109-0.296 0.271v4.88h1.044c0.184 0 0.276-0.056 0.276-0.272zM24.376 13.337h-1.013c-0.231-0.004-0.305 0.088-0.305 0.284v4.144c0 0.344 0.101 0.721 0.788 0.721h2.224c0.059 0 0.087-0.036 0.087-0.088v-0.468h-1.373c-0.273-0.013-0.407-0.153-0.407-0.424zM32 13.337h-1.525c-0.26 0-0.408 0.123-0.467 0.355l-0.84 3.551h-0.024l-0.867-3.904h-1.187c-0.229 0-0.301 0.117-0.301 0.299v4.849h0.501c0.080 0 0.115-0.040 0.115-0.123v-4.065h0.079l1.072 4.188h0.703c0.265 0 0.364-0.108 0.429-0.371l0.963-3.817h0.077v4.188h0.937c0.229 0 0.335-0.089 0.335-0.316zM13.856 13.339c-0.231 0-0.293 0.112-0.293 0.273v2.493l1.24-0.973c0.048-0.037 0.075-0.067 0.077-0.147v-1.647zM13.563 16.136v2.351h1.041c0.184 0 0.277-0.053 0.277-0.271v-2.080z"></path>
</symbol>
<symbol id="icon-hp" viewBox="0 0 32 32">
<path fill="#0096d6" style="fill: var(--color4, #0096d6)" d="M16 32h-0.533l3.333-8.933h4.533c0.8 0 1.6-0.667 1.867-1.333l3.6-9.733c0.533-1.6-0.4-2.933-2-2.933h-6.267l-5.2 14.4-2.933 8.133c-7.2-1.733-12.4-8-12.4-15.6 0-7.333 4.933-13.467 11.733-15.467l-3.067 8.533-5.2 14h3.333l4.267-11.867h2.533l-4.267 11.867h3.333l4-11.067c0.533-1.6-0.267-2.933-2-2.933h-2.667l3.333-9.067h0.667c8.8 0 16 7.2 16 16s-7.2 16-16 16zM25.733 11.067h-2.533l-3.6 9.733h2.533z"></path>
</symbol>
<symbol id="icon-lenovo" viewBox="0 0 32 32">
<path fill="#e2231a" style="fill: var(--color5, #e2231a)" d="M27.005 15.228c-0.003-0-0.006-0-0.009-0-0.596 0-1.080 0.484-1.080 1.080 0 0.026 0.001 0.052 0.003 0.078l-0-0.003c-0 0.011-0.001 0.024-0.001 0.037 0 0.612 0.492 1.11 1.102 1.119h0.001c0 0 0 0 0.001 0 0.601 0 1.088-0.487 1.088-1.088 0-0.024-0.001-0.048-0.002-0.071l0 0.003c0-0.011 0.001-0.024 0.001-0.037 0-0.612-0.492-1.109-1.103-1.117h-0.001zM18.325 15.228c-0.003-0-0.006-0-0.009-0-0.596 0-1.080 0.484-1.080 1.080 0 0.026 0.001 0.052 0.003 0.078l-0-0.003c-0 0.011-0.001 0.024-0.001 0.037 0 0.612 0.492 1.11 1.102 1.119h0.001c0 0 0 0 0.001 0 0.601 0 1.088-0.487 1.088-1.088 0-0.024-0.001-0.048-0.002-0.071l0 0.003c0-0.011 0.001-0.024 0.001-0.037 0-0.612-0.492-1.109-1.103-1.117h-0.001zM8.977 15.159c-0.011-0-0.024-0.001-0.037-0.001-0.338 0-0.638 0.16-0.83 0.408l-0.002 0.002c-0.154 0.213-0.246 0.478-0.246 0.766 0 0.076 0.006 0.151 0.019 0.223l-0.001-0.008 1.969-0.816c-0.148-0.341-0.481-0.575-0.87-0.575-0.001 0-0.003 0-0.004 0h0zM0 10.667v10.667h32v-10.667zM6.675 18.436h-3.705v-5.333h1.143v4.299h2.563zM9.097 17.608c0.011 0 0.023 0 0.036 0 0.44 0 0.841-0.165 1.145-0.436l-0.002 0.001 0.712 0.548c-0.488 0.485-1.16 0.784-1.902 0.784-0.002 0-0.004 0-0.006 0h0c-0.063 0.007-0.135 0.010-0.209 0.010-1.174 0-2.125-0.952-2.125-2.125s0.952-2.125 2.125-2.125c0.030 0 0.060 0.001 0.089 0.002l-0.004-0c0.031-0.002 0.067-0.003 0.103-0.003 0.601 0 1.141 0.257 1.517 0.668l0.001 0.002c0.261 0.314 0.438 0.706 0.492 1.136l0.001 0.011-2.883 1.2c0.222 0.204 0.519 0.33 0.846 0.33 0.022 0 0.045-0.001 0.067-0.002l-0.003 0zM15.608 18.436h-1.127v-2.336c-0.020-0.484-0.417-0.869-0.905-0.869-0.016 0-0.031 0-0.047 0.001l0.002-0c-0.016-0.001-0.035-0.002-0.053-0.002-0.482 0-0.874 0.388-0.88 0.869v2.337h-1.124v-4.105h1.128v0.588c0.312-0.399 0.793-0.654 1.333-0.657h0.001c0.026-0.002 0.057-0.002 0.088-0.002 0.873 0 1.58 0.707 1.58 1.58 0 0.018-0 0.036-0.001 0.054l0-0.003zM18.253 18.505c-1.134-0.049-2.035-0.98-2.035-2.122 0-1.173 0.951-2.124 2.124-2.124s2.124 0.951 2.124 2.123v0c-0.005 1.174-0.958 2.124-2.133 2.124-0.028 0-0.056-0.001-0.084-0.002l0.004 0zM21.987 18.435l-1.689-4.104h1.288l1.019 2.8 1.019-2.8h1.288l-1.689 4.104zM26.935 18.505c-1.134-0.049-2.035-0.98-2.035-2.122 0-1.173 0.951-2.124 2.124-2.124s2.124 0.951 2.124 2.123v0c-0.005 1.174-0.958 2.124-2.133 2.124-0.028 0-0.056-0.001-0.084-0.002l0.004 0zM29.601 17.948h-0.188v0.488h-0.113v-0.488h-0.183v-0.103h0.483zM30.323 18.436h-0.109v-0.42l-0.183 0.284h-0.017l-0.181-0.284v0.42h-0.109v-0.591h0.12l0.179 0.28 0.179-0.28h0.117z"></path>
</symbol>
<symbol id="icon-samsung" viewBox="0 0 32 32">
<path fill="#1428a0" style="fill: var(--color6, #1428a0)" d="M26.422 13.708l0.061 3.591h-0.031l-1.039-3.591h-1.712v4.523h1.131l-0.061-3.713h0.031l1.115 3.713h1.635v-4.523zM4.89 13.708l-0.856 4.569h1.238l0.627-4.157h0.031l0.611 4.157h1.223l-0.841-4.569zM11.797 13.708l-0.565 3.484h-0.031l-0.565-3.484h-1.864l-0.092 4.569h1.146l0.031-4.111h0.015l0.764 4.111h1.161l0.764-4.111h0.031l0.030 4.111h1.146l-0.107-4.569zM2.109 16.978c0.046 0.107 0.031 0.26 0.015 0.336-0.031 0.153-0.137 0.306-0.443 0.306-0.29 0-0.458-0.168-0.458-0.413v-0.443h-1.223v0.351c0 1.024 0.81 1.329 1.666 1.329 0.825 0 1.513-0.29 1.62-1.039 0.061-0.397 0.015-0.657 0-0.749-0.214-0.963-1.956-1.238-2.078-1.773-0.015-0.092-0.015-0.183 0-0.245 0.031-0.153 0.138-0.306 0.413-0.306s0.428 0.168 0.428 0.413v0.275h1.146v-0.321c0-0.993-0.902-1.146-1.543-1.146-0.81 0-1.482 0.275-1.605 1.009-0.031 0.199-0.046 0.382 0.015 0.611 0.183 0.947 1.819 1.223 2.048 1.803zM16.978 16.978c0.046 0.107 0.030 0.245 0.015 0.336-0.031 0.153-0.138 0.306-0.443 0.306-0.29 0-0.458-0.168-0.458-0.413v-0.443h-1.223v0.351c0 1.009 0.795 1.314 1.651 1.314 0.825 0 1.498-0.275 1.605-1.039 0.061-0.397 0.015-0.642 0-0.749-0.183-0.947-1.91-1.238-2.032-1.757-0.015-0.092-0.015-0.183 0-0.245 0.031-0.153 0.137-0.306 0.413-0.306 0.26 0 0.428 0.168 0.428 0.413v0.275h1.131v-0.321c0-0.993-0.886-1.146-1.528-1.146-0.81 0-1.467 0.26-1.589 1.009-0.031 0.199-0.031 0.382 0.015 0.611 0.183 0.947 1.788 1.207 2.017 1.803zM20.829 17.589c0.321 0 0.413-0.214 0.443-0.336 0.015-0.046 0.015-0.122 0.015-0.168v-3.377h1.161v3.286c0 0.092 0 0.26-0.015 0.306-0.076 0.856-0.749 1.131-1.589 1.131s-1.513-0.275-1.589-1.131c0-0.046-0.015-0.214-0.015-0.306v-3.286h1.161v3.377c0 0.061 0 0.122 0.015 0.168 0 0.122 0.092 0.336 0.413 0.336zM30.365 17.543c0.336 0 0.443-0.214 0.474-0.336 0.015-0.046 0.015-0.122 0.015-0.168v-0.657h-0.474v-0.672h1.62v1.223c0 0.092 0 0.153-0.015 0.306-0.076 0.84-0.795 1.131-1.605 1.131s-1.528-0.29-1.605-1.131c-0.015-0.153-0.015-0.214-0.015-0.306v-1.925c0-0.077 0.015-0.229 0.015-0.306 0.107-0.856 0.795-1.131 1.605-1.131s1.513 0.275 1.605 1.131c0.015 0.137 0.015 0.306 0.015 0.306v0.153h-1.146v-0.26c0 0 0-0.107-0.015-0.168-0.015-0.107-0.107-0.336-0.458-0.336-0.336 0-0.428 0.214-0.458 0.336-0.015 0.061-0.015 0.138-0.015 0.214v2.094c0 0.061 0 0.122 0.015 0.168 0 0.122 0.122 0.336 0.443 0.336z"></path>
</symbol>
<symbol id="icon-toshiba" viewBox="0 0 32 32">
<path fill="#f00" style="fill: var(--color7, #f00)" d="M6.899 13.563c-1.42 0-2.104 0.249-2.2 1.531-0.019 0.251-0.030 0.543-0.030 0.838 0 0.024 0 0.049 0 0.073l-0-0.004c0 0.291 0.005 0.601 0.028 0.907 0.097 1.28 0.781 1.531 2.2 1.531 1.42 0 2.107-0.251 2.204-1.531 0.024-0.305 0.029-0.616 0.029-0.907 0-0.289-0.007-0.601-0.029-0.907-0.097-1.28-0.784-1.531-2.203-1.531zM11.952 13.563c-0.547 0-1.093 0.053-1.313 0.161-0.429 0.208-0.727 0.507-0.727 1.36 0 0.5 0.133 0.872 0.391 1.061 0.375 0.28 0.737 0.307 1.747 0.36 0.407 0.021 0.627 0.104 0.627 0.453 0 0.443-0.392 0.443-0.752 0.443-0.373 0-0.488-0.033-0.613-0.128-0.112-0.084-0.14-0.235-0.141-0.464h-1.267c0 0.649 0.013 1.179 0.627 1.445 0.547 0.24 2.227 0.24 2.731 0.019 0.437-0.193 0.751-0.449 0.751-1.325 0-0.607-0.121-0.98-0.587-1.255-0.331-0.196-1.26-0.227-1.731-0.256-0.344-0.021-0.475-0.147-0.475-0.451 0-0.396 0.38-0.411 0.707-0.411 0.269 0 0.453 0.024 0.585 0.14 0.051 0.052 0.115 0.132 0.117 0.409h1.263c0-0.544-0.019-1.131-0.607-1.401-0.233-0.107-0.783-0.161-1.332-0.161zM14.893 13.645v4.709h1.328v-1.816h1.541v1.816h1.328v-4.709h-1.328v1.72h-1.541v-1.72zM20.257 13.645v4.709h1.336v-4.709zM22.779 13.645v4.709h2.516c1.159 0 1.549-0.501 1.549-1.269 0-0.535-0.123-1.007-0.857-1.192 0.592-0.152 0.765-0.505 0.765-1.016 0-1.035-0.649-1.232-1.575-1.232zM28.609 13.645l-1.424 4.709h1.383l0.249-0.873h1.547l0.253 0.873h1.383l-1.427-4.709zM0 13.648v1.175h1.407v3.533h1.407v-3.533h1.407v-1.173zM6.899 14.664c0.557 0 0.844 0.084 0.88 0.809 0.005 0.113 0.013 0.268 0.013 0.527 0 0.26-0.008 0.413-0.013 0.527-0.036 0.725-0.323 0.809-0.88 0.809s-0.844-0.084-0.88-0.809c-0.007-0.14-0.011-0.305-0.011-0.47 0-0.020 0-0.040 0-0.059v0.003c0-0.259 0.004-0.413 0.011-0.527 0.036-0.725 0.323-0.809 0.88-0.809zM24.107 14.724h0.92c0.24 0 0.391 0.113 0.391 0.388 0 0.235-0.149 0.38-0.391 0.38h-0.92zM29.588 14.809h0.008l0.472 1.627h-0.951zM24.108 16.419h0.919c0.372 0 0.449 0.165 0.449 0.431s-0.147 0.427-0.449 0.427h-0.92z"></path>
</symbol>
</defs>
</svg>
